<?xml version="1.0" encoding="UTF-8"?>
<svg id="Layer_1" data-name="Layer 1" xmlns="http://www.w3.org/2000/svg" viewBox="0 0 512 512">
  <defs>
    <style>
      .cls-1 {
        fill: #f2d59f;
      }

      .cls-2 {
        fill: #ff7124;
      }

      .cls-3 {
        fill: #8ecac1;
      }

      .cls-4 {
        fill: #5e2a41;
      }
    </style>
  </defs>
  <g id="_38._Book" data-name="38. Book">
    <g>
      <g>
        <path class="cls-1" d="M324.16,335.72l-43.61-100.11-43.62,100.11h87.22ZM434.78,122.18v378.33H132.45c-.48,0-.96-.01-1.45-.02V123.49l.02-1.56c.47.01.95.02,1.42.02h302.33v.23h0Z"/>
        <path class="cls-3" d="M382.12,85.13c-2.04-5.76-3.15-11.95-3.15-18.4h0c0-30.51,24.73-55.24,55.23-55.24h.57v110.46h-.57c-24.04,0-44.51-15.37-52.08-36.82Z"/>
        <path class="cls-2" d="M382.12,85.13c7.57,21.45,28.04,36.82,52.08,36.82H132.45c-.47,0-.95-.01-1.42-.02-29.84-.75-53.81-25.17-53.81-55.2h0c0-30.51,24.73-55.24,55.24-55.24h301.74c-30.5,0-55.23,24.73-55.23,55.23h0c0,6.47,1.1,12.66,3.15,18.41Z"/>
        <polygon class="cls-1" points="280.55 235.61 324.16 335.72 236.93 335.72 280.55 235.61"/>
        <path class="cls-3" d="M131.03,121.93l-.02,1.56v377c-29.83-.77-53.78-25.19-53.78-55.21V66.73c0,30.03,23.96,54.45,53.81,55.2Z"/>
      </g>
      <g>
        <path class="cls-4" d="M434.78,133.44H132.45c-.57,0-1.15-.01-1.71-.03-17.46-.44-33.81-7.57-46.02-20.08-12.24-12.53-18.98-29.08-18.98-46.61C65.73,29.93,95.67,0,132.46,0h302.32c6.34,0,11.49,5.14,11.49,11.49s-5.14,11.49-11.49,11.49H132.46c-24.13,0-43.76,19.62-43.76,43.74s18.72,43.13,42.61,43.73c.38,0,.76.02,1.14.02h302.33c6.34,0,11.49,5.14,11.49,11.49,0,6.34-5.14,11.49-11.49,11.49Z"/>
        <path class="cls-4" d="M434.78,133.44c-6.34,0-11.49-5.14-11.49-11.49V11.49c0-6.34,5.14-11.49,11.49-11.49s11.49,5.14,11.49,11.49v110.46c0,6.34-5.14,11.49-11.49,11.49Z"/>
        <path class="cls-4" d="M131,511.99c-6.34,0-11.49-5.13-11.49-11.48V123.49c0-6.34,5.14-11.49,11.49-11.49s11.49,5.14,11.49,11.49v377c0,6.34-5.14,11.5-11.49,11.5Z"/>
        <path class="cls-4" d="M77.22,456.77c-6.34,0-11.49-5.14-11.49-11.49V66.73c0-6.34,5.14-11.49,11.49-11.49s11.49,5.14,11.49,11.49v378.55c0,6.34-5.14,11.49-11.49,11.49Z"/>
        <path class="cls-4" d="M434.78,512c-6.34,0-11.49-5.14-11.49-11.49V122.18c0-6.34,5.14-11.49,11.49-11.49s11.49,5.14,11.49,11.49v378.33c0,6.34-5.14,11.49-11.49,11.49Z"/>
        <path class="cls-4" d="M324.17,347.21h-87.24c-6.34,0-11.49-5.14-11.49-11.49s5.14-11.49,11.49-11.49h87.22c6.34,0,11.49,5.14,11.49,11.49s-5.14,11.49-11.48,11.49Z"/>
        <path class="cls-4" d="M211.85,404.78c-1.53,0-3.09-.31-4.58-.96-5.82-2.53-8.48-9.3-5.94-15.12l68.7-157.68c2.54-5.82,9.31-8.48,15.12-5.94,5.82,2.53,8.48,9.3,5.94,15.12l-68.7,157.68c-1.88,4.32-6.11,6.9-10.54,6.9Z"/>
        <path class="cls-4" d="M349.24,404.78c-4.43,0-8.65-2.58-10.54-6.9l-68.68-157.68c-2.53-5.82.13-12.59,5.94-15.12,5.81-2.54,12.59.13,15.12,5.94l68.68,157.68c2.53,5.82-.13,12.59-5.94,15.12-1.49.65-3.05.96-4.58.96Z"/>
        <path class="cls-4" d="M382.13,96.62h-86.46c-6.34,0-11.49-5.14-11.49-11.49s5.14-11.49,11.49-11.49h86.44c6.34,0,11.49,5.14,11.49,11.49s-5.14,11.49-11.48,11.49Z"/>
        <path class="cls-4" d="M378.97,59.8h-177.49c-6.34,0-11.49-5.14-11.49-11.49s5.14-11.49,11.49-11.49h177.49c6.34,0,11.49,5.14,11.49,11.49s-5.14,11.49-11.49,11.49Z"/>
        <path class="cls-4" d="M434.78,512H132.45c-.58,0-1.15-.01-1.73-.03-17.47-.45-33.81-7.59-46.02-20.1-12.23-12.53-18.97-29.08-18.97-46.6,0-6.34,5.14-11.49,11.49-11.49s11.49,5.14,11.49,11.49c0,23.9,18.71,43.11,42.59,43.73.37,0,.76.02,1.15.02h302.33c6.34,0,11.49,5.14,11.49,11.49,0,6.34-5.14,11.49-11.49,11.49Z"/>
        <path class="cls-4" d="M434.21,133.44c-28.24,0-53.53-17.88-62.92-44.48-2.52-7.09-3.8-14.58-3.8-22.23,0-36.8,29.93-66.73,66.72-66.73,6.34,0,11.49,5.14,11.49,11.49s-5.14,11.49-11.49,11.49c-24.12,0-43.74,19.62-43.74,43.74,0,5.03.84,9.93,2.48,14.57,6.16,17.46,22.74,29.18,41.26,29.18,6.34,0,11.49,5.14,11.49,11.49s-5.14,11.49-11.49,11.49Z"/>
      </g>
    </g>
  </g>
</svg>